<svg xmlns="http://www.w3.org/2000/svg" width="173" height="161" fill="none" viewBox="0 0 173 161">
  <path fill="#40BF73" fill-rule="evenodd" d="M112.771 16.248c-2.91 13.902-7.814 41.617-6.029 49.6 15.759-4.995 21.467-21.535 22.746-30.093 1.369-9.163-2.406-24.297-7.677-33.755-.53.369-1.365.846-2.433 1.456-5.373 3.071-16.639 9.51-24.509 22.455a28.93 28.93 0 0 0-8.72-7.188c-20.01-10.766-39.455-9.017-48.325-8.22-1.622.147-2.89.26-3.744.26 1.315 14.327 7.434 35.374 16.108 44.124 8.046 8.117 27.07 20.767 48.063 14.093-4.005-10.059-30.086-36.584-43.659-49.543 14.79 5.595 37.8 33.394 48.181 47.545.039-.201.077-.406.114-.616.068.07.136.137.204.204.019-.616.043-1.262.072-1.935a65.66 65.66 0 0 0 .627-9.7c1.171-13.778 3.831-31.21 8.981-38.687Z" clip-rule="evenodd"/>
  <path fill="#474C59" fill-rule="evenodd" d="M.296 80.98c-.015-.203 0-.409.054-.604a8.003 8.003 0 0 1 7.707-5.847h156.16a8.004 8.004 0 0 1 7.707 5.847c.055.195.069.4.054.603-3.303 44.452-40.473 79.492-85.84 79.492-45.368 0-82.538-35.04-85.842-79.492Z" clip-rule="evenodd"/>
  <circle cx="86.08" cy="115" r="28" fill="#fff"/>
  <path fill="#D9D9D9" d="M86.08 120h14.5a2.5 2.5 0 0 0 2.5-2.5v-1a2.5 2.5 0 0 0-2.5-2.5h-14.5v6Z"/>
  <rect width="25" height="6" fill="#D9D9D9" rx="3" transform="matrix(0 -1 -1 0 89.08 120)"/>
</svg>
