<svg xmlns="http://www.w3.org/2000/svg" xmlns:xlink="http://www.w3.org/1999/xlink" width="100%" height="100%" version="1.1" viewBox="0 0 2778 2778" xml:space="preserve" style="fill-rule:evenodd;clip-rule:evenodd;stroke-linejoin:round;stroke-miterlimit:2"><g transform="matrix(5.55556,0,0,5.55556,-2939.57,-5937.6)"><g id="Add" transform="matrix(1,0,0,1,529.122,1068.77)"><rect width="500" height="500" x="0" y="0" style="fill:none"/><g><path d="M779.122,1171.44C860.433,1171.44 926.448,1237.46 926.448,1318.77C926.448,1400.08 860.433,1466.09 779.122,1466.09C697.811,1466.09 631.796,1400.08 631.796,1318.77C631.796,1237.46 697.811,1171.44 779.122,1171.44ZM755.82,1295.48L716.03,1295.48C709.855,1295.48 703.932,1297.94 699.566,1302.3C695.199,1306.67 692.746,1312.59 692.746,1318.77C692.746,1318.77 692.746,1318.77 692.746,1318.77C692.746,1324.94 695.199,1330.87 699.566,1335.23C703.932,1339.6 709.855,1342.05 716.03,1342.05L755.82,1342.05L755.82,1381.84C755.82,1388.02 758.273,1393.94 762.64,1398.31C767.006,1402.67 772.929,1405.13 779.104,1405.13C779.104,1405.13 779.105,1405.13 779.105,1405.13C785.28,1405.13 791.203,1402.67 795.569,1398.31C799.936,1393.94 802.389,1388.02 802.389,1381.84L802.389,1342.05L842.179,1342.05C848.354,1342.05 854.277,1339.6 858.643,1335.23C863.01,1330.87 865.463,1324.94 865.463,1318.77C865.463,1318.77 865.463,1318.77 865.463,1318.77C865.463,1312.59 863.01,1306.67 858.643,1302.3C854.277,1297.94 848.354,1295.48 842.179,1295.48L802.389,1295.48L802.389,1255.69C802.389,1249.52 799.936,1243.6 795.569,1239.23C791.203,1234.86 785.28,1232.41 779.105,1232.41C779.105,1232.41 779.104,1232.41 779.104,1232.41C772.929,1232.41 767.006,1234.86 762.64,1239.23C758.273,1243.6 755.82,1249.52 755.82,1255.69L755.82,1295.48Z" transform="matrix(1,0,0,1,-529.122,-1068.77)"/></g></g></g></svg>