<svg xmlns="http://www.w3.org/2000/svg" xmlns:xlink="http://www.w3.org/1999/xlink" width="100%" height="100%" version="1.1" viewBox="0 0 2778 2778" xml:space="preserve" style="fill-rule:evenodd;clip-rule:evenodd;stroke-linecap:round;stroke-miterlimit:46"><g transform="matrix(5.55556,0,0,5.55556,0,0)"><rect id="Bar" width="500" height="500" x="0" y="0" style="fill:none"/><clipPath id="_clip1"><rect id="Bar1" width="500" height="500" x="0" y="0"/></clipPath><g clip-path="url(#_clip1)"><g><g><path d="M1175.19,154.685L1420.73,154.685" transform="matrix(1,0,0,1,7.83642,18.5913) matrix(1.0956,0,0,1.44633,-1179.88,-93.5696)" style="fill:none;stroke:#000;stroke-width:24.94px"/></g><g><path d="M1175.19,154.685L1420.73,154.685" transform="matrix(1,0,0,1,7.83642,18.5913) matrix(1.0956,0,0,1.44633,-1179.88,7.69511)" style="fill:none;stroke:#000;stroke-width:24.94px"/></g><g><path d="M1175.19,154.685L1420.73,154.685" transform="matrix(1,0,0,1,7.83642,18.5913) matrix(1.0956,0,0,1.44633,-1179.88,108.938)" style="fill:none;stroke:#000;stroke-width:24.94px"/></g></g></g></g></svg>