<svg xmlns="http://www.w3.org/2000/svg" xmlns:xlink="http://www.w3.org/1999/xlink" width="100%" height="100%" version="1.1" viewBox="0 0 2778 2778" xml:space="preserve" style="fill-rule:evenodd;clip-rule:evenodd;stroke-linejoin:round;stroke-miterlimit:2"><g transform="matrix(5.55556,0,0,5.55556,-2939.57,-8906.4)"><g id="Bookmark" transform="matrix(1,0,0,1,529.122,1603.15)"><rect width="500" height="500" x="0" y="0" style="fill:none"/><g><path d="M926.447,1779.49C926.447,1738.83 893.44,1705.83 852.785,1705.83L705.459,1705.83C664.804,1705.83 631.797,1738.83 631.797,1779.49L631.797,1926.81C631.797,1967.47 664.804,2000.48 705.459,2000.48L852.785,2000.48C893.44,2000.48 926.447,1967.47 926.447,1926.81L926.447,1779.49ZM882.039,1773.27C882.039,1767.2 879.627,1761.37 875.332,1757.08C871.038,1752.78 865.214,1750.37 859.141,1750.37L809.129,1750.37L809.129,1849.8L845.591,1814.03L882.039,1849.8L882.039,1773.27Z" transform="matrix(1,0,0,1,-529.122,-1603.15)"/></g></g></g></svg>