<svg xmlns="http://www.w3.org/2000/svg" xmlns:xlink="http://www.w3.org/1999/xlink" width="100%" height="100%" version="1.1" viewBox="0 0 2778 2778" xml:space="preserve" style="fill-rule:evenodd;clip-rule:evenodd;stroke-linecap:round;stroke-miterlimit:46"><g transform="matrix(5.55556,0,0,5.55556,0,-17812.8)"><g id="Checklist" transform="matrix(1,0,0,1,0,3206.3)"><rect width="500" height="500" x="0" y="0" style="fill:none"/><clipPath id="_clip1"><rect width="500" height="500" x="0" y="0"/></clipPath><g clip-path="url(#_clip1)"><g><g><path d="M1175.19,154.685L1454.43,154.685" transform="matrix(1,0,0,1,-9.62172,-7.65053) matrix(0.666212,0,0,1.03397,-643.768,17.6743)" style="fill:none;stroke:#000;stroke-width:36.79px"/></g><g><path d="M1175.19,154.685L1394.58,154.685" transform="matrix(1,0,0,1,-9.62172,-7.65053) matrix(0.666212,0,0,1.03397,-643.768,90.068)" style="fill:none;stroke:#000;stroke-width:36.79px"/></g><g><path d="M1175.19,154.685L1464.62,154.685" transform="matrix(1,0,0,1,-9.62172,-7.65053) matrix(0.265974,0,0,0.412797,-173.414,258.532)" style="fill:none;stroke:#000;stroke-width:92.16px"/></g><g><path d="M138.039,694.182L177.883,791.072L442.561,636.955" transform="matrix(1,0,0,1,-9.62172,-7.65053) matrix(0.457602,-0.201495,0.201495,0.457602,49.2278,11.5328)" style="fill:none;stroke:#000;stroke-width:64px;stroke-linejoin:round;stroke-miterlimit:1.5"/></g></g></g></g></g></svg>