<svg xmlns="http://www.w3.org/2000/svg" xmlns:xlink="http://www.w3.org/1999/xlink" width="100%" height="100%" version="1.1" viewBox="0 0 2778 2778" xml:space="preserve" style="fill-rule:evenodd;clip-rule:evenodd;stroke-linejoin:round;stroke-miterlimit:2"><g transform="matrix(5.55556,0,0,5.55556,-2939.57,-2968.8)"><g id="Clock" transform="matrix(1,0,0,1,529.122,534.384)"><rect width="500" height="500" x="0" y="0" style="fill:none"/><g><path d="M779.122,637.058C860.433,637.058 926.448,703.072 926.448,784.384C926.448,865.695 860.433,931.71 779.122,931.71C697.811,931.71 631.796,865.695 631.796,784.384C631.796,703.072 697.811,637.058 779.122,637.058ZM824.682,824.529C824.682,824.529 784.51,801.492 772.31,794.495C770.087,793.221 768.465,791.112 767.804,788.637C762.337,768.189 737.049,673.598 737.049,673.598C733,660.277 754.977,651.854 760.247,667.453L789.451,776.492L838.102,804.655C850.621,812.142 838.575,832.975 824.682,824.529Z" transform="matrix(1,0,0,1,-529.122,-534.384)"/></g></g></g></svg>