<svg xmlns="http://www.w3.org/2000/svg" xmlns:xlink="http://www.w3.org/1999/xlink" width="100%" height="100%" version="1.1" viewBox="0 0 2778 2778" xml:space="preserve" style="fill-rule:evenodd;clip-rule:evenodd;stroke-linecap:round;stroke-linejoin:round;stroke-miterlimit:1.5"><g transform="matrix(5.55556,0,0,5.55556,-2939.57,0)"><g id="Cog" transform="matrix(1,0,0,1,529.122,0)"><rect width="500" height="500" x="0" y="0" style="fill:none"/><g><path d="M811.498,175.62C801.717,174.188 791.781,174.188 782,175.62L775.497,192.269C767.332,194.331 759.51,197.571 752.279,201.886L735.907,194.712C727.98,200.616 720.953,207.642 715.049,215.57L722.223,231.941C717.908,239.173 714.668,246.994 712.606,255.159L695.957,261.663C694.526,271.443 694.526,281.38 695.957,291.161L712.606,297.664C714.668,305.829 717.908,313.65 722.223,320.882L715.049,337.253C720.953,345.181 727.98,352.208 735.907,358.111L752.279,350.937C759.51,355.253 767.332,358.492 775.497,360.555L782,377.204C791.781,378.635 801.717,378.635 811.498,377.204L818.001,360.555C826.166,358.492 833.988,355.253 841.219,350.937L857.591,358.111C865.519,352.208 872.545,345.181 878.449,337.253L871.275,320.882C875.59,313.65 878.83,305.829 880.892,297.664L897.541,291.161C898.972,281.38 898.972,271.443 897.541,261.663L880.892,255.159C878.83,246.994 875.59,239.173 871.275,231.941L878.449,215.57C872.545,207.642 865.519,200.616 857.591,194.712L841.219,201.886C833.988,197.571 826.166,194.331 818.001,192.269L811.498,175.62ZM796.749,224.065C825.64,224.065 849.096,247.521 849.096,276.412C849.096,305.302 825.64,328.758 796.749,328.758C767.858,328.758 744.403,305.302 744.403,276.412C744.403,247.521 767.858,224.065 796.749,224.065Z" transform="matrix(1.46006,0,0,1.46006,-913.298,-153.576)" style="stroke:#000;stroke-width:21.92px"/></g></g></g></svg>