<?xml version="1.0" encoding="UTF-8" standalone="no"?>
<!DOCTYPE svg PUBLIC "-//W3C//DTD SVG 1.1//EN" "http://www.w3.org/Graphics/SVG/1.1/DTD/svg11.dtd">
<svg width="100%" height="100%" viewBox="0 0 2778 2778" version="1.1" xmlns="http://www.w3.org/2000/svg" xmlns:xlink="http://www.w3.org/1999/xlink" xml:space="preserve" xmlns:serif="http://www.serif.com/" style="fill-rule:evenodd;clip-rule:evenodd;stroke-linejoin:round;stroke-miterlimit:2;">
    <g transform="matrix(5.55556,0,0,5.55556,-2939.57,-11875.2)">
        <g id="Dragdots" transform="matrix(1,0,0,1,529.122,2137.54)">
            <rect x="0" y="0" width="500" height="500" style="fill:none;"/>
            <g transform="matrix(1.41448,0,0,1.98571,-141.745,-4437.32)">
                <ellipse cx="231.044" cy="2293.83" rx="29.952" ry="21.335"/>
            </g>
            <g transform="matrix(1.41448,0,0,1.98571,-141.745,-4304.87)">
                <ellipse cx="231.044" cy="2293.83" rx="29.952" ry="21.335"/>
            </g>
            <g transform="matrix(1.41448,0,0,1.98571,-141.745,-4172.43)">
                <ellipse cx="231.044" cy="2293.83" rx="29.952" ry="21.335"/>
            </g>
            <g transform="matrix(1.41448,0,0,1.98571,-11.8681,-4437.32)">
                <ellipse cx="231.044" cy="2293.83" rx="29.952" ry="21.335"/>
            </g>
            <g transform="matrix(1.41448,0,0,1.98571,-11.8681,-4304.87)">
                <ellipse cx="231.044" cy="2293.83" rx="29.952" ry="21.335"/>
            </g>
            <g transform="matrix(1.41448,0,0,1.98571,-11.8681,-4172.43)">
                <ellipse cx="231.044" cy="2293.83" rx="29.952" ry="21.335"/>
            </g>
        </g>
    </g>
</svg>
