<svg xmlns="http://www.w3.org/2000/svg" xmlns:xlink="http://www.w3.org/1999/xlink" width="100%" height="100%" version="1.1" viewBox="0 0 8716 8716" xml:space="preserve" style="fill-rule:evenodd;clip-rule:evenodd;stroke-miterlimit:46"><g transform="matrix(5.55556,0,0,5.55556,-5877.78,0)"><g id="Duck" transform="matrix(1,0,0,1,-0.244039,0)"><rect width="1568.77" height="1568.77" x="1058.24" y="0" style="fill:none"/><clipPath id="_clip1"><rect width="1568.77" height="1568.77" x="1058.24" y="0"/></clipPath><g clip-path="url(#_clip1)"><g><g><g><path d="M2070.17,3034.25L1989.59,3035.29C1908.41,3035.29 1845.15,2968.84 1845.04,2887.69C1845.04,2887.69 1841.83,2887.67 1841.65,2887.69C1841.65,2923.89 1812.99,2954.37 1776.79,2954.37" transform="matrix(1.75347,0,0,1.75347,-1466.25,-1172.88) matrix(0.61515,0,0,0.658192,693.28,-1049.46) matrix(-8.02776e-17,1.44615,1.44615,8.02776e-17,-2072.62,222.361)" style="fill:none;stroke:#000;stroke-width:47.12px"/></g><g><path d="M2210.4,3240.57C2210.4,3238.51 2210.35,3178.38 2210.27,3176.34C2210.09,3171.92 2209.71,3167.55 2209.15,3163.24C2199.7,3091.08 2137.91,3035.29 2063.19,3035.29L1989.59,3035.29C1908.34,3035.29 1842.38,2969.33 1842.38,2888.09C1842.38,2806.84 1908.34,2740.88 1989.59,2740.88" transform="matrix(1.75347,0,0,1.75347,-1466.25,-1172.88) matrix(0.61515,0,0,0.658192,693.28,-1049.46) matrix(0.8,0,0,0.8,443.26,599.165)" style="fill:none;stroke:#000;stroke-width:85.18px;stroke-linejoin:round"/></g></g><g><path d="M2425.18,1180.41L1209.02,1180.41L1209.02,1228.63C1209.02,1263.98 1237.68,1292.63 1273.02,1292.63L2361.18,1292.63C2396.53,1292.63 2425.18,1263.98 2425.18,1228.63L2425.18,1180.41ZM1824.8,642.923C1898.56,658.461 1972.57,688.046 2039.68,731.631C2209.41,841.845 2287.16,1011.48 2229.25,1145.21L1484.68,1141.7C1348.02,1007.06 1326.31,837.689 1431.74,728.77L1431.91,728.6C1436.68,735.283 1441.41,741.967 1444.78,749.237C1451.77,764.285 1443.01,789.919 1443.01,804.943C1443.01,929.309 1543.98,1030.28 1668.34,1030.28C1792.71,1030.28 1893.68,929.309 1893.68,804.943C1893.68,741.342 1867.27,683.86 1824.8,642.923ZM1492.63,767.87C1492.61,755.81 1493.39,745.826 1487.95,734.116C1480.88,718.877 1466.17,706.944 1463.9,689.414C1458.26,645.771 1499.97,605.933 1542.34,606.212C1555.75,606.3 1565.66,617.366 1577.07,622.344C1595.45,630.366 1604.15,631.036 1623.73,631.487C1636.85,628.344 1650.56,626.678 1664.65,626.678C1761.42,626.678 1839.99,705.249 1839.99,802.025C1839.99,898.802 1761.42,977.373 1664.65,977.373C1567.87,977.373 1489.3,898.802 1489.3,802.025C1489.3,790.335 1490.45,778.91 1492.63,767.87ZM1437.52,626.017L1370.27,558.765C1364.33,562.823 1357.14,565.197 1349.4,565.197C1328.93,565.197 1312.31,548.575 1312.31,528.102C1312.31,507.629 1328.93,491.007 1349.4,491.007L1349.4,490.768C1349.53,470.405 1366.1,453.913 1386.5,453.913C1406.97,453.913 1423.59,470.534 1423.59,491.007C1423.59,498.744 1421.22,505.931 1417.16,511.877L1487.3,582.022C1468.7,593.262 1450.96,608.803 1437.52,626.017Z" transform="matrix(1.75347,0,0,1.75347,-1466.25,-1172.88) matrix(0.570297,0,0,0.570297,836.337,668.89)"/></g></g></g></g></g></svg>