<svg xmlns="http://www.w3.org/2000/svg" xmlns:xlink="http://www.w3.org/1999/xlink" width="100%" height="100%" version="1.1" viewBox="0 0 2778 2778" xml:space="preserve" style="fill-rule:evenodd;clip-rule:evenodd;stroke-linecap:round;stroke-linejoin:round;stroke-miterlimit:1.5"><g transform="matrix(5.55556,0,0,5.55556,-8.6363,-2968.8)"><g id="Lup" transform="matrix(1,0,0,1,1.55453,534.384)"><rect width="500" height="500" x="0" y="0" style="fill:none"/><g><path d="M274.427,276.264C251.955,298.276 221.193,311.853 187.284,311.853C118.533,311.853 62.716,256.036 62.716,187.284C62.716,118.533 118.533,62.716 187.284,62.716C256.036,62.716 311.853,118.533 311.853,187.284C311.853,221.66 297.899,252.802 275.351,275.351C275.351,275.351 428.94,429.419 428.94,429.419L274.368,276.323L274.427,276.264Z" transform="matrix(0.820362,0,0,0.820362,44.1599,44.203)" style="fill:#ebebeb;fill-opacity:0;stroke:#000;stroke-width:39.01px"/><g><path d="M275.351,275.351C275.351,275.351 274.368,276.323 274.368,276.323L274.427,276.264C251.955,298.276 221.193,311.853 187.284,311.853" transform="matrix(0.820362,0,0,0.820362,44.1599,44.203) matrix(-0.422828,-0.422828,0.422828,-0.422828,185.793,338.287)" style="fill:#ebebeb;fill-opacity:0;stroke:#000;stroke-width:36.69px"/></g></g></g></g></svg>