<svg xmlns="http://www.w3.org/2000/svg" xmlns:xlink="http://www.w3.org/1999/xlink" width="100%" height="100%" version="1.1" viewBox="0 0 1667 1667" xml:space="preserve" style="fill-rule:evenodd;clip-rule:evenodd;stroke-linejoin:round;stroke-miterlimit:2"><g transform="matrix(5.55556,0,0,5.55556,0,0)"><g id="Logo" transform="matrix(0.725929,0,0,0.846359,525.541,439.849)"><rect width="413.264" height="354.459" x="-723.956" y="-519.695" style="fill:none"/><g id="Planr"><path d="M87.373,59.147L87.371,65.824C85.841,65.823 85.076,66.407 85.076,67.576C85.076,68.645 85.66,69.18 86.828,69.18C88.01,69.181 88.6,68.448 88.601,66.98L88.608,50.345L96.179,50.348L96.173,66.2C96.172,67.841 96.007,69.187 95.677,70.238C95.347,71.288 94.784,72.267 93.988,73.174C93.093,74.181 91.974,74.976 90.631,75.56C89.288,76.144 87.901,76.436 86.471,76.435C83.885,76.434 81.713,75.563 79.954,73.822C78.196,72.08 77.317,69.923 77.318,67.349C77.319,64.85 78.109,62.824 79.689,61.27C81.132,59.841 83.308,59.127 86.217,59.128L87.373,59.147ZM69.602,76.428L69.612,50.338L76.761,50.34L76.75,76.431L69.602,76.428ZM60.259,63.109L60.256,56.395L58.074,56.396L58.072,50.334L50.5,50.337L50.507,66.525C50.508,69.658 51.363,72.092 53.074,73.826C54.784,75.559 57.187,76.426 60.283,76.424C63.267,76.423 65.473,75.636 66.903,74.063C68.332,72.489 69.046,70.061 69.044,66.779L69.038,50.33L61.466,50.333L61.472,66.279C61.473,67.273 61.355,67.963 61.119,68.349C60.883,68.734 60.46,68.927 59.851,68.927C58.67,68.928 58.079,68.045 58.078,66.28L58.077,63.109L60.259,63.109ZM49.972,50.33L49.966,66.853C49.965,69.75 49.097,72.069 47.362,73.809C45.627,75.549 43.317,76.418 40.432,76.417C37.56,76.416 35.363,75.57 33.841,73.878C32.318,72.187 31.558,69.756 31.559,66.585L31.565,50.323L39.137,50.326L39.131,66.588C39.13,68.142 39.683,68.92 40.79,68.92C41.859,68.92 42.394,68.144 42.394,66.589L42.401,50.327L49.972,50.33ZM23.234,69.395L23.241,50.319L31.001,50.322L30.991,76.413L21.033,76.409C18,76.408 15.649,75.656 13.98,74.151C12.121,72.468 11.191,70.334 11.192,67.747C11.193,65.109 12.727,62.886 15.034,61.078L13.282,50.316L21.045,50.319L22.091,58.729L22.088,65.438L21.477,65.438C19.846,65.437 19.03,66.138 19.029,67.54C19.029,68.776 19.971,69.394 21.857,69.395L23.234,69.395Z" class="logotext" transform="matrix(4.19951,-1.95681e-19,-4.55312e-19,3.60968,-727.3,-523.191)" style="fill-rule:nonzero"/></g><g id="Meal"><path d="M76.768,24.024L76.758,50.115L69.609,50.112L69.62,24.021L76.768,24.024ZM60.351,37.334L60.348,44.048L58.166,44.047L58.164,50.108L50.592,50.105L50.598,33.917C50.599,30.784 51.455,28.35 53.165,26.617C54.876,24.883 57.279,24.017 60.374,24.018C63.358,24.019 65.565,24.806 66.994,26.38C68.423,27.953 69.137,30.381 69.136,33.663L69.13,50.112L61.558,50.109L61.564,34.164C61.564,33.169 61.447,32.479 61.21,32.093C60.974,31.708 60.552,31.515 59.943,31.515C58.761,31.514 58.17,32.397 58.17,34.162L58.169,37.333L60.351,37.334ZM49.461,34.113L49.458,39.923L40.933,39.92C40.245,39.92 39.758,40.021 39.471,40.225C39.184,40.429 39.04,40.773 39.04,41.257C39.04,41.805 39.186,42.165 39.48,42.337C39.773,42.51 40.371,42.596 41.276,42.596L49.954,42.6L49.951,50.054L40.394,50.05C37.527,50.049 35.335,49.363 33.819,47.993C32.304,46.623 31.546,44.644 31.547,42.057L31.551,31.831C31.552,29.333 32.27,27.397 33.704,26.021C35.138,24.646 37.155,23.958 39.754,23.959L49.962,23.963L49.959,31.456L41.548,31.453C40.21,31.452 39.541,31.885 39.541,32.752C39.54,33.261 39.7,33.615 40.018,33.813C40.337,34.01 40.904,34.109 41.719,34.11L49.461,34.113ZM3.821,49.989L3.828,31.495C3.829,29.203 4.525,27.33 5.916,25.877C7.308,24.424 9.112,23.698 11.33,23.699C13.961,23.7 15.984,24.91 17.399,27.328C18.264,26.026 19.192,25.096 20.182,24.538C21.172,23.981 22.394,23.703 23.847,23.704C26.153,23.704 27.919,24.432 29.146,25.886C30.374,27.34 30.987,29.432 30.986,32.164L30.979,50L23.348,49.997L23.355,33.307C23.355,32.48 23.29,31.932 23.158,31.663C23.027,31.393 22.76,31.259 22.359,31.258C21.608,31.258 21.232,31.897 21.231,33.175L21.224,49.996L13.594,49.993L13.6,33.304C13.601,32.489 13.532,31.944 13.394,31.668C13.257,31.393 12.987,31.255 12.586,31.255C11.835,31.254 11.458,31.937 11.458,33.303L11.451,49.992L3.821,49.989Z" class="logotext darken" transform="matrix(4.19951,-1.36977e-18,-3.64249e-18,3.60968,-727.3,-523.191)" style="fill-rule:nonzero"/></g></g></g></svg>