<?xml version="1.0" encoding="UTF-8" standalone="no"?>
<!DOCTYPE svg PUBLIC "-//W3C//DTD SVG 1.1//EN" "http://www.w3.org/Graphics/SVG/1.1/DTD/svg11.dtd">
<svg width="100%" height="100%" viewBox="0 0 14594 20591" version="1.1" xmlns="http://www.w3.org/2000/svg" xmlns:xlink="http://www.w3.org/1999/xlink" xml:space="preserve" xmlns:serif="http://www.serif.com/" style="fill-rule:evenodd;clip-rule:evenodd;stroke-linecap:round;stroke-linejoin:round;stroke-miterlimit:1.5;">
    <g transform="matrix(5.55556,0,0,5.55556,0,0)">
        <g id="Lup" transform="matrix(1,0,0,1,1.55453,534.384)">
            <rect x="0" y="0" width="500" height="500" style="fill:none;"/>
            <g transform="matrix(0.820362,0,0,0.820362,44.1599,44.203)">
                <path d="M274.427,276.264C251.955,298.276 221.193,311.853 187.284,311.853C118.533,311.853 62.716,256.036 62.716,187.284C62.716,118.533 118.533,62.716 187.284,62.716C256.036,62.716 311.853,118.533 311.853,187.284C311.853,221.66 297.899,252.802 275.351,275.351C275.351,275.351 428.94,429.419 428.94,429.419L274.368,276.323L274.427,276.264Z" style="fill:rgb(235,235,235);fill-opacity:0;stroke:black;stroke-width:39.01px;"/>
                <g transform="matrix(-0.422828,-0.422828,0.422828,-0.422828,185.793,338.287)">
                    <path d="M275.351,275.351C275.351,275.351 274.368,276.323 274.368,276.323L274.427,276.264C251.955,298.276 221.193,311.853 187.284,311.853" style="fill:rgb(235,235,235);fill-opacity:0;stroke:black;stroke-width:36.69px;"/>
                </g>
            </g>
        </g>
        <g id="Cross" transform="matrix(1,0,0,1,1.55453,1068.77)">
            <rect x="0" y="0" width="500" height="500" style="fill:none;"/>
            <g transform="matrix(1,0,0,1,0,-532.057)">
                <path d="M134.419,679.086L347.691,892.358L240.873,785.371L134.419,892.358L347.691,679.086" style="fill:none;stroke:black;stroke-width:32px;"/>
            </g>
        </g>
        <g id="Arrow" transform="matrix(1,0,0,1,1.55453,2671.92)">
            <rect x="0" y="0" width="500" height="500" style="fill:none;"/>
            <g transform="matrix(1,0,0,1,8.9447,-482.229)">
                <path d="M134.419,679.086L237.391,782.057L240.873,785.371L347.691,679.086" style="fill:none;stroke:black;stroke-width:32px;"/>
            </g>
        </g>
        <g id="Harth" transform="matrix(1,0,0,1,1.55453,1603.15)">
            <rect x="0" y="0" width="500" height="500" style="fill:none;"/>
            <g transform="matrix(1.45235,0,0,1.45235,-108.564,-1757.21)">
                <path d="M240,1344.11C240,1323.11 245.349,1311.87 256,1301.21C273,1284.21 300,1275.55 322.627,1286.58C349.963,1299.91 359.209,1340.48 340,1364.11C307.16,1404.52 273.501,1444.25 240,1484.11C206.499,1444.25 172.84,1404.52 140,1364.11C120.791,1340.48 130.037,1299.91 157.373,1286.58C180,1275.55 207,1284.21 224,1301.21C234.651,1311.87 240,1323.11 240,1344.11Z" style="fill:none;stroke:black;stroke-width:16.52px;"/>
            </g>
        </g>
        <g id="Clock" transform="matrix(1,0,0,1,529.122,534.384)">
            <rect x="0" y="0" width="500" height="500" style="fill:none;"/>
            <g transform="matrix(1,0,0,1,-529.122,-534.384)">
                <path d="M779.122,637.058C860.433,637.058 926.448,703.072 926.448,784.384C926.448,865.695 860.433,931.71 779.122,931.71C697.811,931.71 631.796,865.695 631.796,784.384C631.796,703.072 697.811,637.058 779.122,637.058ZM824.682,824.529C824.682,824.529 784.51,801.492 772.31,794.495C770.087,793.221 768.465,791.112 767.804,788.637C762.337,768.189 737.049,673.598 737.049,673.598C733,660.277 754.977,651.854 760.247,667.453L789.451,776.492L838.102,804.655C850.621,812.142 838.575,832.975 824.682,824.529Z"/>
            </g>
        </g>
        <g id="Add" transform="matrix(1,0,0,1,529.122,1068.77)">
            <rect x="0" y="0" width="500" height="500" style="fill:none;"/>
            <g transform="matrix(1,0,0,1,-529.122,-1068.77)">
                <path d="M779.122,1171.44C860.433,1171.44 926.448,1237.46 926.448,1318.77C926.448,1400.08 860.433,1466.09 779.122,1466.09C697.811,1466.09 631.796,1400.08 631.796,1318.77C631.796,1237.46 697.811,1171.44 779.122,1171.44ZM755.82,1295.48L716.03,1295.48C709.855,1295.48 703.932,1297.94 699.566,1302.3C695.199,1306.67 692.746,1312.59 692.746,1318.77C692.746,1318.77 692.746,1318.77 692.746,1318.77C692.746,1324.94 695.199,1330.87 699.566,1335.23C703.932,1339.6 709.855,1342.05 716.03,1342.05L755.82,1342.05L755.82,1381.84C755.82,1388.02 758.273,1393.94 762.64,1398.31C767.006,1402.67 772.929,1405.13 779.104,1405.13C779.104,1405.13 779.105,1405.13 779.105,1405.13C785.28,1405.13 791.203,1402.67 795.569,1398.31C799.936,1393.94 802.389,1388.02 802.389,1381.84L802.389,1342.05L842.179,1342.05C848.354,1342.05 854.277,1339.6 858.643,1335.23C863.01,1330.87 865.463,1324.94 865.463,1318.77C865.463,1318.77 865.463,1318.77 865.463,1318.77C865.463,1312.59 863.01,1306.67 858.643,1302.3C854.277,1297.94 848.354,1295.48 842.179,1295.48L802.389,1295.48L802.389,1255.69C802.389,1249.52 799.936,1243.6 795.569,1239.23C791.203,1234.86 785.28,1232.41 779.105,1232.41C779.105,1232.41 779.104,1232.41 779.104,1232.41C772.929,1232.41 767.006,1234.86 762.64,1239.23C758.273,1243.6 755.82,1249.52 755.82,1255.69L755.82,1295.48Z"/>
            </g>
        </g>
        <g id="Bookmark" transform="matrix(1,0,0,1,529.122,1603.15)">
            <rect x="0" y="0" width="500" height="500" style="fill:none;"/>
            <g transform="matrix(1,0,0,1,-529.122,-1603.15)">
                <path d="M926.447,1779.49C926.447,1738.83 893.44,1705.83 852.785,1705.83L705.459,1705.83C664.804,1705.83 631.797,1738.83 631.797,1779.49L631.797,1926.81C631.797,1967.47 664.804,2000.48 705.459,2000.48L852.785,2000.48C893.44,2000.48 926.447,1967.47 926.447,1926.81L926.447,1779.49ZM882.039,1773.27C882.039,1767.2 879.627,1761.37 875.332,1757.08C871.038,1752.78 865.214,1750.37 859.141,1750.37L809.129,1750.37L809.129,1849.8L845.591,1814.03L882.039,1849.8L882.039,1773.27Z"/>
            </g>
        </g>
        <g id="Duck" transform="matrix(1,0,0,1,-0.244039,0)">
            <rect x="1058.24" y="0" width="1568.77" height="1568.77" style="fill:none;"/>
            <clipPath id="_clip1">
                <rect x="1058.24" y="0" width="1568.77" height="1568.77"/>
            </clipPath>
            <g clip-path="url(#_clip1)">
                <g transform="matrix(1.75347,0,0,1.75347,-1466.25,-1172.88)">
                    <g transform="matrix(0.61515,0,0,0.658192,693.28,-1049.46)">
                        <g transform="matrix(-8.02776e-17,1.44615,1.44615,8.02776e-17,-2072.62,222.361)">
                            <path d="M2070.17,3034.25L1989.59,3035.29C1908.41,3035.29 1845.15,2968.84 1845.04,2887.69C1845.04,2887.69 1841.83,2887.67 1841.65,2887.69C1841.65,2923.89 1812.99,2954.37 1776.79,2954.37" style="fill:none;stroke:black;stroke-width:47.12px;stroke-linecap:butt;stroke-linejoin:miter;stroke-miterlimit:46;"/>
                        </g>
                        <g transform="matrix(0.8,0,0,0.8,443.26,599.165)">
                            <path d="M2210.4,3240.57C2210.4,3238.51 2210.35,3178.38 2210.27,3176.34C2210.09,3171.92 2209.71,3167.55 2209.15,3163.24C2199.7,3091.08 2137.91,3035.29 2063.19,3035.29L1989.59,3035.29C1908.34,3035.29 1842.38,2969.33 1842.38,2888.09C1842.38,2806.84 1908.34,2740.88 1989.59,2740.88" style="fill:none;stroke:black;stroke-width:85.18px;stroke-linecap:butt;stroke-miterlimit:46;"/>
                        </g>
                    </g>
                    <g transform="matrix(0.570297,0,0,0.570297,836.337,668.89)">
                        <path d="M2425.18,1180.41L1209.02,1180.41L1209.02,1228.63C1209.02,1263.98 1237.68,1292.63 1273.02,1292.63L2361.18,1292.63C2396.53,1292.63 2425.18,1263.98 2425.18,1228.63L2425.18,1180.41ZM1824.8,642.923C1898.56,658.461 1972.57,688.046 2039.68,731.631C2209.41,841.845 2287.16,1011.48 2229.25,1145.21L1484.68,1141.7C1348.02,1007.06 1326.31,837.689 1431.74,728.77L1431.91,728.6C1436.68,735.283 1441.41,741.967 1444.78,749.237C1451.77,764.285 1443.01,789.919 1443.01,804.943C1443.01,929.309 1543.98,1030.28 1668.34,1030.28C1792.71,1030.28 1893.68,929.309 1893.68,804.943C1893.68,741.342 1867.27,683.86 1824.8,642.923ZM1492.63,767.87C1492.61,755.81 1493.39,745.826 1487.95,734.116C1480.88,718.877 1466.17,706.944 1463.9,689.414C1458.26,645.771 1499.97,605.933 1542.34,606.212C1555.75,606.3 1565.66,617.366 1577.07,622.344C1595.45,630.366 1604.15,631.036 1623.73,631.487C1636.85,628.344 1650.56,626.678 1664.65,626.678C1761.42,626.678 1839.99,705.249 1839.99,802.025C1839.99,898.802 1761.42,977.373 1664.65,977.373C1567.87,977.373 1489.3,898.802 1489.3,802.025C1489.3,790.335 1490.45,778.91 1492.63,767.87ZM1437.52,626.017L1370.27,558.765C1364.33,562.823 1357.14,565.197 1349.4,565.197C1328.93,565.197 1312.31,548.575 1312.31,528.102C1312.31,507.629 1328.93,491.007 1349.4,491.007L1349.4,490.768C1349.53,470.405 1366.1,453.913 1386.5,453.913C1406.97,453.913 1423.59,470.534 1423.59,491.007C1423.59,498.744 1421.22,505.931 1417.16,511.877L1487.3,582.022C1468.7,593.262 1450.96,608.803 1437.52,626.017Z"/>
                    </g>
                </g>
            </g>
        </g>
        <g id="Cog" transform="matrix(1,0,0,1,529.122,0)">
            <rect x="0" y="0" width="500" height="500" style="fill:none;"/>
            <g transform="matrix(1.46006,0,0,1.46006,-913.298,-153.576)">
                <path d="M811.498,175.62C801.717,174.188 791.781,174.188 782,175.62L775.497,192.269C767.332,194.331 759.51,197.571 752.279,201.886L735.907,194.712C727.98,200.616 720.953,207.642 715.049,215.57L722.223,231.941C717.908,239.173 714.668,246.994 712.606,255.159L695.957,261.663C694.526,271.443 694.526,281.38 695.957,291.161L712.606,297.664C714.668,305.829 717.908,313.65 722.223,320.882L715.049,337.253C720.953,345.181 727.98,352.208 735.907,358.111L752.279,350.937C759.51,355.253 767.332,358.492 775.497,360.555L782,377.204C791.781,378.635 801.717,378.635 811.498,377.204L818.001,360.555C826.166,358.492 833.988,355.253 841.219,350.937L857.591,358.111C865.519,352.208 872.545,345.181 878.449,337.253L871.275,320.882C875.59,313.65 878.83,305.829 880.892,297.664L897.541,291.161C898.972,281.38 898.972,271.443 897.541,261.663L880.892,255.159C878.83,246.994 875.59,239.173 871.275,231.941L878.449,215.57C872.545,207.642 865.519,200.616 857.591,194.712L841.219,201.886C833.988,197.571 826.166,194.331 818.001,192.269L811.498,175.62ZM796.749,224.065C825.64,224.065 849.096,247.521 849.096,276.412C849.096,305.302 825.64,328.758 796.749,328.758C767.858,328.758 744.403,305.302 744.403,276.412C744.403,247.521 767.858,224.065 796.749,224.065Z" style="stroke:black;stroke-width:21.92px;"/>
            </g>
        </g>
        <rect id="Bar" x="0" y="0" width="500" height="500" style="fill:none;"/>
        <clipPath id="_clip2">
            <rect id="Bar1" serif:id="Bar" x="0" y="0" width="500" height="500"/>
        </clipPath>
        <g clip-path="url(#_clip2)">
            <g transform="matrix(1,0,0,1,7.83642,18.5913)">
                <g transform="matrix(1.0956,0,0,1.44633,-1179.88,-93.5696)">
                    <path d="M1175.19,154.685L1420.73,154.685" style="fill:none;stroke:black;stroke-width:24.94px;stroke-linejoin:miter;stroke-miterlimit:46;"/>
                </g>
                <g transform="matrix(1.0956,0,0,1.44633,-1179.88,7.69511)">
                    <path d="M1175.19,154.685L1420.73,154.685" style="fill:none;stroke:black;stroke-width:24.94px;stroke-linejoin:miter;stroke-miterlimit:46;"/>
                </g>
                <g transform="matrix(1.0956,0,0,1.44633,-1179.88,108.938)">
                    <path d="M1175.19,154.685L1420.73,154.685" style="fill:none;stroke:black;stroke-width:24.94px;stroke-linejoin:miter;stroke-miterlimit:46;"/>
                </g>
            </g>
        </g>
        <g id="Ulist" transform="matrix(1,0,0,1,0,2137.54)">
            <rect x="0" y="0" width="500" height="500" style="fill:none;"/>
            <clipPath id="_clip3">
                <rect x="0" y="0" width="500" height="500"/>
            </clipPath>
            <g clip-path="url(#_clip3)">
                <g transform="matrix(1,0,0,1,4.46606,4.54747e-13)">
                    <g transform="matrix(0.666212,0,0,1.03397,-586.297,17.6743)">
                        <path d="M1175.19,154.685L1380.29,154.685" style="fill:none;stroke:black;stroke-width:36.79px;stroke-linejoin:miter;stroke-miterlimit:46;"/>
                    </g>
                    <g transform="matrix(0.666212,0,0,1.03397,-586.297,90.068)">
                        <path d="M1175.19,154.685L1355.02,154.685" style="fill:none;stroke:black;stroke-width:36.79px;stroke-linejoin:miter;stroke-miterlimit:46;"/>
                    </g>
                    <g transform="matrix(0.666212,0,0,1.03397,-586.297,162.446)">
                        <path d="M1175.19,154.685L1400.51,154.685" style="fill:none;stroke:black;stroke-width:36.79px;stroke-linejoin:miter;stroke-miterlimit:46;"/>
                    </g>
                    <g transform="matrix(0.00383012,0,0,1.03397,139.827,17.6743)">
                        <path d="M1175.19,154.685L1420.73,154.685" style="fill:none;stroke:black;stroke-width:43.77px;stroke-linejoin:miter;stroke-miterlimit:46;"/>
                    </g>
                    <g transform="matrix(0.00383012,0,0,1.03397,139.827,90.068)">
                        <path d="M1175.19,154.685L1420.73,154.685" style="fill:none;stroke:black;stroke-width:43.77px;stroke-linejoin:miter;stroke-miterlimit:46;"/>
                    </g>
                    <g transform="matrix(0.00383012,0,0,1.03397,139.827,162.446)">
                        <path d="M1175.19,154.685L1420.73,154.685" style="fill:none;stroke:black;stroke-width:43.77px;stroke-linejoin:miter;stroke-miterlimit:46;"/>
                    </g>
                </g>
            </g>
        </g>
        <g id="Checklist" transform="matrix(1,0,0,1,0,3206.3)">
            <rect x="0" y="0" width="500" height="500" style="fill:none;"/>
            <clipPath id="_clip4">
                <rect x="0" y="0" width="500" height="500"/>
            </clipPath>
            <g clip-path="url(#_clip4)">
                <g transform="matrix(1,0,0,1,-9.62172,-7.65053)">
                    <g transform="matrix(0.666212,0,0,1.03397,-643.768,17.6743)">
                        <path d="M1175.19,154.685L1454.43,154.685" style="fill:none;stroke:black;stroke-width:36.79px;stroke-linejoin:miter;stroke-miterlimit:46;"/>
                    </g>
                    <g transform="matrix(0.666212,0,0,1.03397,-643.768,90.068)">
                        <path d="M1175.19,154.685L1394.58,154.685" style="fill:none;stroke:black;stroke-width:36.79px;stroke-linejoin:miter;stroke-miterlimit:46;"/>
                    </g>
                    <g transform="matrix(0.265974,0,0,0.412797,-173.414,258.532)">
                        <path d="M1175.19,154.685L1464.62,154.685" style="fill:none;stroke:black;stroke-width:92.16px;stroke-linejoin:miter;stroke-miterlimit:46;"/>
                    </g>
                    <g transform="matrix(0.457602,-0.201495,0.201495,0.457602,49.2278,11.5328)">
                        <path d="M138.039,694.182L177.883,791.072L442.561,636.955" style="fill:none;stroke:black;stroke-width:64px;"/>
                    </g>
                </g>
            </g>
        </g>
    </g>
</svg>
