<svg xmlns="http://www.w3.org/2000/svg" xmlns:xlink="http://www.w3.org/1999/xlink" width="100%" height="100%" version="1.1" viewBox="0 0 2778 2778" xml:space="preserve" style="fill-rule:evenodd;clip-rule:evenodd;stroke-linecap:round;stroke-miterlimit:46"><g transform="matrix(5.55556,0,0,5.55556,0,-11875.2)"><g id="Ulist" transform="matrix(1,0,0,1,0,2137.54)"><rect width="500" height="500" x="0" y="0" style="fill:none"/><clipPath id="_clip1"><rect width="500" height="500" x="0" y="0"/></clipPath><g clip-path="url(#_clip1)"><g><path d="M1175.19,154.685L1380.29,154.685" transform="matrix(0.666212,0,0,1.03397,-581.831,17.6743)" style="fill:none;stroke:#000;stroke-width:36.79px"/></g><g><path d="M1175.19,154.685L1355.02,154.685" transform="matrix(0.666212,0,0,1.03397,-581.831,90.068)" style="fill:none;stroke:#000;stroke-width:36.79px"/></g><g><path d="M1175.19,154.685L1400.51,154.685" transform="matrix(0.666212,0,0,1.03397,-581.831,162.446)" style="fill:none;stroke:#000;stroke-width:36.79px"/></g><g transform="matrix(0.55366,0,0,0.777253,21.3443,-1605.27)"><ellipse cx="231.044" cy="2293.83" rx="29.952" ry="21.335"/></g><g transform="matrix(0.55366,0,0,0.777253,21.3443,-1532.89)"><ellipse cx="231.044" cy="2293.83" rx="29.952" ry="21.335"/></g><g transform="matrix(0.55366,0,0,0.777253,21.3443,-1460.5)"><ellipse cx="231.044" cy="2293.83" rx="29.952" ry="21.335"/></g></g></g></g></svg>